<svg width="24" height="24" viewBox="0 0 24 24" fill="none" xmlns="http://www.w3.org/2000/svg">
<g clip-path="url(#clip0_4_93)">
<path d="M19.8356 5.21318C19.0341 4.4043 18.0413 4 17.0231 4C16.005 4 14.988 4.4043 14.2118 5.21318L12.9923 6.4835C13.4172 6.71822 13.8211 6.99854 14.171 7.36299C14.2595 7.45516 14.3369 7.55395 14.4168 7.65121L15.4845 6.5391C15.8953 6.11084 16.4184 5.875 17.0231 5.875C17.6045 5.875 18.1509 6.11075 18.5618 6.53887C18.9728 6.96689 19.1992 7.53613 19.1992 8.1417C19.1992 8.74727 18.9728 9.3165 18.5618 9.74453L14.8128 13.6498C14.4047 14.0518 13.8563 14.3125 13.2769 14.3125C12.6975 14.3125 12.1491 14.0767 11.7382 13.6486C11.325 13.2197 11.0747 12.6514 11.0747 12.0449C11.0747 11.4385 11.301 10.8701 11.712 10.4421L11.8369 10.3398C11.7778 10.2256 11.7159 10.1084 11.6259 10.0146C11.3841 9.7627 11.0663 9.625 10.7231 9.625C10.3876 9.625 10.0734 9.76164 9.83409 10.005C8.97038 11.5858 9.1695 13.6261 10.4638 14.9737C11.2406 15.7832 12.2588 16.1875 13.2769 16.1875C14.2944 16.1875 15.312 15.7832 16.0883 14.9743L19.8356 11.0693C20.6358 10.2358 21.0236 9.13545 20.9992 8.04297C20.9747 6.99121 20.5894 5.99687 19.8356 5.21318ZM9.58125 15.3496L8.51531 16.46C8.10469 16.8643 7.55625 17.125 6.97687 17.125C6.39553 17.125 5.84906 16.8892 5.43816 16.4611C5.02725 16.0331 4.80084 15.4639 4.80084 14.8583C4.80084 14.2527 5.02722 13.6835 5.43816 13.2555L9.18722 9.3502C9.59531 8.92187 10.1184 8.6875 10.7231 8.6875C11.3278 8.6875 11.8509 8.92328 12.2618 9.35137C12.673 9.77939 12.8992 10.3486 12.8992 10.9542C12.8992 11.5598 12.6728 12.129 12.2618 12.557L12.1631 12.6602C12.222 12.7756 12.2818 12.8915 12.3731 12.9868C12.6159 13.2373 12.9366 13.375 13.2769 13.375C13.6124 13.375 13.9266 13.2384 14.1659 12.995C15.0296 11.4142 14.8305 9.37393 13.5362 8.02627C12.7341 7.2168 11.7413 6.8125 10.7231 6.8125C9.705 6.8125 8.68969 7.2168 7.91344 8.02539L4.16466 11.9307C3.38841 12.7393 3 13.7992 3 14.8592C3 15.9191 3.38812 16.9791 4.16466 17.788C4.94091 18.5957 5.95875 19 6.97687 19C7.99444 19 9.012 18.5957 9.78825 17.7868L11.0078 16.5165C10.5828 16.2818 10.1789 16.0015 9.82903 15.637C9.73875 15.5459 9.66281 15.4463 9.58125 15.3496Z" fill="black"/>
</g>
<defs>
<clipPath id="clip0_4_93">
<rect width="18" height="15" fill="white" transform="translate(3 4)"/>
</clipPath>
</defs>
</svg>
